<svg id="visual" viewBox="0 0 500 100" width="500" height="100" xmlns="http://www.w3.org/2000/svg" xmlns:xlink="http://www.w3.org/1999/xlink" version="1.1"><rect x="0" y="0" width="500" height="100" fill="#f5f5f5"></rect><path d="M0 25L45 13L91 24L136 27L182 33L227 25L273 18L318 13L364 30L409 21L455 37L500 30L500 101L455 101L409 101L364 101L318 101L273 101L227 101L182 101L136 101L91 101L45 101L0 101Z" fill="#0043ca"></path><path d="M0 43L45 35L91 22L136 38L182 25L227 23L273 29L318 32L364 37L409 39L455 41L500 34L500 101L455 101L409 101L364 101L318 101L273 101L227 101L182 101L136 101L91 101L45 101L0 101Z" fill="#1650d2"></path><path d="M0 33L45 39L91 33L136 40L182 30L227 34L273 37L318 49L364 47L409 32L455 51L500 51L500 101L455 101L409 101L364 101L318 101L273 101L227 101L182 101L136 101L91 101L45 101L0 101Z" fill="#255dd9"></path><path d="M0 41L45 42L91 41L136 59L182 51L227 49L273 47L318 49L364 47L409 58L455 52L500 48L500 101L455 101L409 101L364 101L318 101L273 101L227 101L182 101L136 101L91 101L45 101L0 101Z" fill="#3369e0"></path><path d="M0 59L45 56L91 60L136 52L182 52L227 57L273 49L318 61L364 62L409 59L455 55L500 60L500 101L455 101L409 101L364 101L318 101L273 101L227 101L182 101L136 101L91 101L45 101L0 101Z" fill="#4076e7"></path><path d="M0 57L45 60L91 70L136 69L182 58L227 59L273 73L318 60L364 70L409 67L455 60L500 66L500 101L455 101L409 101L364 101L318 101L273 101L227 101L182 101L136 101L91 101L45 101L0 101Z" fill="#4d82ed"></path><path d="M0 77L45 68L91 77L136 78L182 75L227 77L273 66L318 66L364 68L409 76L455 72L500 75L500 101L455 101L409 101L364 101L318 101L273 101L227 101L182 101L136 101L91 101L45 101L0 101Z" fill="#5a8ff4"></path><path d="M0 83L45 86L91 85L136 86L182 78L227 77L273 86L318 77L364 86L409 83L455 76L500 82L500 101L455 101L409 101L364 101L318 101L273 101L227 101L182 101L136 101L91 101L45 101L0 101Z" fill="#679bf9"></path><path d="M0 89L45 84L91 93L136 84L182 87L227 91L273 91L318 91L364 88L409 86L455 91L500 84L500 101L455 101L409 101L364 101L318 101L273 101L227 101L182 101L136 101L91 101L45 101L0 101Z" fill="#75a7ff"></path></svg>