<svg id="visual" viewBox="0 0 500 100" width="500" height="100" xmlns="http://www.w3.org/2000/svg" xmlns:xlink="http://www.w3.org/1999/xlink" version="1.1"><rect x="0" y="0" width="500" height="100" fill="#75a7ff"></rect><path d="M0 60L5.5 60.2C11 60.3 22 60.7 33.2 59.3C44.3 58 55.7 55 66.8 51.5C78 48 89 44 100 44.3C111 44.7 122 49.3 133.2 52.2C144.3 55 155.7 56 166.8 54.8C178 53.7 189 50.3 200 48.7C211 47 222 47 233.2 48.7C244.3 50.3 255.7 53.7 266.8 54.7C278 55.7 289 54.3 300 51.5C311 48.7 322 44.3 333.2 41.5C344.3 38.7 355.7 37.3 366.8 37.2C378 37 389 38 400 40.5C411 43 422 47 433.2 51.2C444.3 55.3 455.7 59.7 466.8 61.2C478 62.7 489 61.3 494.5 60.7L500 60L500 101L494.5 101C489 101 478 101 466.8 101C455.7 101 444.3 101 433.2 101C422 101 411 101 400 101C389 101 378 101 366.8 101C355.7 101 344.3 101 333.2 101C322 101 311 101 300 101C289 101 278 101 266.8 101C255.7 101 244.3 101 233.2 101C222 101 211 101 200 101C189 101 178 101 166.8 101C155.7 101 144.3 101 133.2 101C122 101 111 101 100 101C89 101 78 101 66.8 101C55.7 101 44.3 101 33.2 101C22 101 11 101 5.5 101L0 101Z" fill="#102027" stroke-linecap="round" stroke-linejoin="miter"></path></svg>